<?xml version="1.0" standalone="no"?>
<!DOCTYPE svg PUBLIC "-//W3C//DTD SVG 20010904//EN"
 "http://www.w3.org/TR/2001/REC-SVG-20010904/DTD/svg10.dtd">
<svg version="1.0" xmlns="http://www.w3.org/2000/svg"
 width="700.000000pt" height="700.000000pt" viewBox="0 0 700.000000 700.000000"
 preserveAspectRatio="xMidYMid meet">
<metadata>
Created by potrace 1.14, written by Peter Selinger 2001-2017
</metadata>
<g transform="translate(0.000000,700.000000) scale(0.100000,-0.100000)"
fill="#000000" stroke="none">
<path d="M1859 6491 c0 -40 0 -866 1 -893 0 -15 10 -18 65 -18 64 0 65 0 66
28 0 15 2 34 3 42 2 8 6 47 10 85 16 175 55 332 101 410 31 52 87 110 137 142
70 43 123 58 288 79 58 7 684 13 710 7 13 -4 15 -329 13 -2866 -2 -1574 -3
-2869 -3 -2878 0 -14 -14 -17 -92 -19 -108 -2 -298 -8 -315 -9 -12 -1 -16
-140 -4 -142 3 -1 313 -2 688 -3 674 -1 682 -1 685 19 2 11 1 43 -2 70 l-5 50
-130 4 c-136 3 -242 8 -261 10 -9 1 -11 739 -10 2879 l1 2877 215 -1 c262 -2
400 -11 608 -40 73 -10 122 -23 167 -44 66 -32 153 -109 179 -158 36 -69 61
-255 65 -479 l1 -63 65 0 65 0 0 474 0 474 -1655 0 -1655 0 -1 -37z"/>
</g>
</svg>
