<?xml version="1.0" encoding="utf-8"?>
<!-- Generator: Adobe Illustrator 27.0.0, SVG Export Plug-In . SVG Version: 6.00 Build 0)  -->
<svg version="1.1" id="Isolation_Mode" xmlns="http://www.w3.org/2000/svg" xmlns:xlink="http://www.w3.org/1999/xlink" x="0px"
	 y="0px" viewBox="0 0 354.5 136.3" style="enable-background:new 0 0 354.5 136.3;" xml:space="preserve">
<style type="text/css">
	.st0{fill:#DCDDFB;}
	.st1{fill:#FFFFFF;}
</style>
<path class="st0" d="M52.3,83.6c-12.5-1-20.6-1.6-20.6-6.3c0-5,9.9-6.3,18.1-6.3c10.9,0.1,20.3,2.3,28.1,7.8l10.3-12.7
	c-9.6-6.8-23.4-10.4-38.4-10.4c-22.2,0-38.4,8.2-38.4,23.2c0,15.6,18.9,20.2,39.7,22c14.4,1.2,20,2.7,20,7.2c0,4.6-6,6.8-18,6.8
	c-14,0-25.5-3.9-33.8-10.9L8.6,116.6c11,8.8,26.1,13.7,44.1,13.7c25.4,0,38.7-9.8,38.7-24.2C91.4,90,75.2,85.5,52.3,83.6z"/>
<path class="st0" d="M126.9,100.1l12.2-24.8l12.1,24.8H126.9z M164.9,128h21.7l-36.2-70h-22.3l-36.2,70h21.4l6.6-13.4h38.4
	L164.9,128z"/>
<polygon class="st0" points="215,111.6 215,58 194.6,58 194.6,128 262.1,128 262.1,111.6 "/>
<polygon class="st0" points="292.4,112.4 292.4,100 336.5,100 336.5,85.1 292.4,85.1 292.4,73.6 345.9,73.6 345.9,58 272.3,58 
	272.3,128 347,128 347,112.4 "/>
<polygon class="st1" points="15.4,7.7 33.5,44.8 44.9,44.8 63.1,7.7 51.5,7.7 39.3,34.4 27.1,7.7 "/>
<rect x="67.3" y="7.7" class="st1" width="10.8" height="37.1"/>
<path class="st1" d="M111.9,25.9h-14v-9.9h14c4,0,6.8,1.2,6.8,5C118.7,24.6,115.9,25.9,111.9,25.9z M112.8,7.7H87v37.1h10.8V33.7
	h14.9c10.1,0,16.9-4.3,16.9-13C129.6,12.2,122.9,7.7,112.8,7.7z"/>
<rect x="134.6" y="24.6" class="st1" width="25.3" height="8.2"/>
<path class="st1" d="M189.9,37.3c-8.2,0-13.2-4-13.2-11c0-7,5.1-11,13.2-11c8.2,0,13.2,4,13.2,11C203.1,33.3,198.1,37.3,189.9,37.3z
	 M189.9,46.1c14.7,0,24.2-7.2,24.2-19.8c0-12.6-9.5-19.8-24.2-19.8s-24.2,7.2-24.2,19.8C165.7,38.8,175.2,46.1,189.9,46.1z"/>
<polygon class="st1" points="254.3,7.7 254.3,30.4 232.3,7.7 220.8,7.7 220.8,44.8 231.3,44.8 231.3,20.5 255.2,44.8 264.7,44.8 
	264.7,7.7 "/>
<polygon class="st1" points="284.4,36.1 284.4,7.7 273.6,7.7 273.6,44.8 309.4,44.8 309.4,36.1 "/>
<polygon class="st1" points="303,7.7 320.4,32.3 320.4,44.8 331.2,44.8 331.2,32.3 348.7,7.7 336.6,7.7 325.9,23.7 315.1,7.7 "/>
</svg>
