<?xml version="1.0" encoding="utf-8"?>
<!-- Generator: Adobe Illustrator 27.0.0, SVG Export Plug-In . SVG Version: 6.00 Build 0)  -->
<svg version="1.1" id="Isolation_Mode" xmlns="http://www.w3.org/2000/svg" xmlns:xlink="http://www.w3.org/1999/xlink" x="0px"
	 y="0px" viewBox="0 0 174.7 174.7" style="enable-background:new 0 0 174.7 174.7;" xml:space="preserve">
<style type="text/css">
	.st0{fill:#BFC7F9;}
	.st1{fill:#FFFFFF;}
	.st2{fill:#A190CB;}
</style>
<circle class="st0" cx="87" cy="88.1" r="86.1"/>
<circle class="st1" cx="88.6" cy="86.1" r="86.1"/>
<path d="M51.1,55.9c-4-0.3-6.6-0.5-6.6-2c0-1.6,3.2-2,5.8-2c3.5,0,6.5,0.7,9,2.5l3.3-4.1c-3.1-2.2-7.5-3.3-12.3-3.3
	C43.2,47,38,49.6,38,54.4c0,5,6,6.5,12.7,7c4.6,0.4,6.4,0.9,6.4,2.3c0,1.5-1.9,2.2-5.8,2.2c-4.5,0-8.2-1.2-10.8-3.5l-3.4,4
	c3.5,2.8,8.4,4.4,14.1,4.4c8.1,0,12.4-3.1,12.4-7.7C63.6,57.9,58.4,56.5,51.1,55.9z"/>
<path d="M73.6,61.2l3.9-7.9l3.9,7.9H73.6z M85.8,70.1h6.9L81.1,47.7H74L62.4,70.1h6.8l2.1-4.3h12.3L85.8,70.1z"/>
<polygon points="88.2,47.7 99.2,70.1 106,70.1 117,47.7 110,47.7 102.6,63.8 95.3,47.7 "/>
<polygon points="124.6,65.1 124.6,61.1 138.7,61.1 138.7,56.4 124.6,56.4 124.6,52.7 141.8,52.7 141.8,47.7 118.2,47.7 118.2,70.1 
	142.1,70.1 142.1,65.1 "/>
<path d="M19.9,81.6l6,5.8c4-3.9,8.7-6.1,13.9-6.1c4.2,0,8.2,1.3,8.2,3.8s-4.3,3.7-9.8,5.5c-11.2,3.3-17.9,9.5-18.9,16.8v4.8h40.6
	v-8.3H32.4c1.2-1.9,6.3-4.2,12.5-6.2c8.3-2.5,14.3-6.3,14.3-12.7c0-8.2-9.7-11.7-18.8-11.7C31.4,73.2,23.8,76.8,19.9,81.6z"/>
<path d="M87.6,104.4c-7.8,0-12.4-3.9-12.4-11.2C75.2,86,79.8,82,87.6,82c7.7,0,12.4,3.9,12.4,11.2C100,100.4,95.3,104.4,87.6,104.4z
	 M87.5,113.3c14.5,0,23.6-7.4,23.6-20.1S102.1,73,87.5,73C73.1,73,64,80.4,64,93.2S73.1,113.3,87.5,113.3z"/>
<path d="M150.5,107.6c-2.5,0-4.3-1.3-4.3-3.9s1.8-3.9,4.3-3.9s4.3,1.3,4.3,3.9C154.8,106.3,153,107.6,150.5,107.6z M150.5,113
	c6.1,0,10.4-4,10.4-9.3s-4.3-9.3-10.4-9.3c-6.1,0-10.4,4-10.4,9.3S144.4,113,150.5,113z M124.5,86.6c-2.5,0-4.3-1.3-4.3-3.9
	c0-2.5,1.8-3.9,4.3-3.9s4.3,1.3,4.3,3.9C128.8,85.2,127,86.6,124.5,86.6z M148.6,74.3l-29.5,37.8h7.3l29.4-37.8H148.6z M124.5,91.9
	c6.1,0,10.4-4.1,10.4-9.3c0-5.2-4.3-9.3-10.4-9.3S114,77.4,114,82.7C114,87.9,118.4,91.9,124.5,91.9z"/>
<path class="st2" d="M69.8,152h-4.4v-2.2h4.4c1.1,0,1.7,0.2,1.7,1.1S70.9,152,69.8,152z M65.3,145.7h4c1,0,1.7,0.2,1.7,1
	s-0.7,1-1.7,1h-4V145.7z M71.6,148.6c1.6-0.1,2.4-1.1,2.4-2.3c0-1.7-1.6-2.7-4.2-2.7h-7.5v10.5h8.1c2.6,0,4.2-1.1,4.2-2.9
	C74.6,149.6,73.3,148.7,71.6,148.6z"/>
<polygon class="st2" points="87.4,146 87.4,143.6 76.4,143.6 76.4,154.1 79.5,154.1 79.5,150.4 86.1,150.4 86.1,148 79.5,148 
	79.5,146 "/>
<path class="st2" d="M88.5,145.6l1.7,1.6c1.1-1.1,2.4-1.7,3.9-1.7c1.2,0,2.3,0.4,2.3,1.1s-1.2,1-2.7,1.5c-3.1,0.9-5,2.6-5.2,4.7v1.3
	h11.3v-2.3h-7.7c0.3-0.5,1.8-1.2,3.5-1.7c2.3-0.7,4-1.7,4-3.5c0-2.3-2.7-3.3-5.2-3.3C91.7,143.3,89.6,144.3,88.5,145.6z"/>
<path class="st2" d="M107.5,151.9c-2.2,0-3.5-1.1-3.5-3.1s1.3-3.1,3.5-3.1c2.1,0,3.4,1.1,3.4,3.1S109.6,151.9,107.5,151.9z
	 M107.5,154.4c4,0,6.6-2.1,6.6-5.6s-2.5-5.6-6.6-5.6c-4,0-6.5,2.1-6.5,5.6S103.4,154.4,107.5,154.4z"/>
<path d="M56.6,37.1c2.2,0,3.7-1.5,3.7-3.6c0-2-1.3-2.7-2.7-3.4l-0.8-0.4c-1-0.5-1.8-0.9-1.8-2.3c0-1.2,0.7-2,2-2
	c1.2,0,2.1,0.7,2.8,2.3H60v-2.1c-0.8-0.4-2-0.6-2.9-0.6c-2,0-3.3,1.4-3.3,3.3c0,1.8,1.2,2.5,2.2,3.1l0.8,0.4
	c1.3,0.7,2.3,1.2,2.3,2.6c0,1.3-0.9,2.2-2.3,2.2c-1.5,0-2.5-1-3.2-2.8h-0.2l0.1,2.6C54.3,36.8,55.7,37.1,56.6,37.1z"/>
<path d="M64.9,36.7c-1.1,0-1.7-0.8-1.7-2.3v-4.3c0.4-0.5,1-0.9,1.7-0.9c1.5,0,2.2,1.7,2.2,3.8C67.1,35,66.4,36.7,64.9,36.7z
	 M65.7,28.3c-1,0-1.9,0.5-2.5,1.2v-1.2h-0.1L60.8,29v0.2c0.5,0.2,0.8,0.5,0.8,1.5v8.1c0,1,0,1.6-0.7,1.6v0.2H64v-0.2
	c-0.7,0-0.7-0.5-0.7-1.6v-2.1c0.5,0.2,1,0.4,1.7,0.4c2.1,0,4-1.7,4-4.6C68.9,30.1,67.6,28.3,65.7,28.3z"/>
<path d="M73.3,28.8c1.1,0,1.5,0.9,1.4,2.5h-3.4C71.5,29.9,72.2,28.8,73.3,28.8z M76.1,34.8c-0.5,0.6-1.2,1.2-2.2,1.2
	c-1.8,0-2.6-1.6-2.6-4c0-0.1,0-0.2,0-0.3h5.1c0.1-2.1-1.1-3.4-2.9-3.4c-2.2,0-3.9,1.9-3.9,4.5c0,2.4,1.3,4.3,3.5,4.3
	c1.7,0,2.7-1.1,3.3-2.1L76.1,34.8z"/>
<path d="M84.1,35.2v-4.3c0-1.6-0.8-2.5-2-2.5c-1,0-2.1,0.6-2.9,1.4v-1.3h-0.1L76.7,29v0.2c0.5,0.2,0.8,0.5,0.8,1.5v4.4
	c0,1,0,1.6-0.7,1.6v0.2h3.1v-0.2c-0.7,0-0.7-0.5-0.7-1.6v-5c0.6-0.4,1.3-0.7,1.9-0.7c1.1,0,1.4,0.8,1.4,1.9v3.8c0,1,0,1.6-0.7,1.6
	v0.2h3.1v-0.2C84.2,36.7,84.1,36.2,84.1,35.2z"/>
<path d="M89.3,36.2c-1.5,0-2.2-1.7-2.2-3.8c0-2,0.7-3.7,2.2-3.7c1.1,0,1.7,0.8,1.7,2.3v4.3C90.5,35.8,90,36.2,89.3,36.2z M92.7,34.8
	V24.4h-0.1l-2.4,0.5v0.2c0.5,0.2,0.8,0.5,0.8,1.5v2.1c-0.5-0.2-1-0.4-1.7-0.4c-2.1,0-4,1.7-4,4.6c0,2.4,1.3,4.2,3.2,4.2
	c1,0,1.9-0.5,2.5-1.3l0.3,1.3h0.1l2-0.5v-0.2C92.9,36.2,92.7,35.8,92.7,34.8z"/>
<path d="M100.6,36.7L100.6,36.7l0.3-4.6c1.2,0.6,2,1.2,2,2.5C102.8,35.8,101.9,36.7,100.6,36.7z M100.5,29.8c-1-0.5-1.8-0.9-1.8-2.3
	c0-1.1,0.7-2,2-2c0.1,0,0.2,0,0.3,0L100.5,29.8L100.5,29.8z M104.1,33.6c0-2-1.4-2.7-2.8-3.4l-0.3-0.1l0.4-4.4c0.8,0.3,1.4,1,2,2.2
	h0.2v-2.1c-0.6-0.3-1.4-0.5-2.1-0.6l0.1-1.5h-0.5l-0.1,1.4c-0.1,0-0.2,0-0.3,0c-2,0-3.3,1.4-3.3,3.3c0,1.8,1.2,2.5,2.3,3l0.7,0.4
	l-0.4,4.8c-1.2-0.2-2-1.2-2.6-2.8h-0.2l0.1,2.6C98,36.7,99.1,37,100,37l-0.1,1.4h0.5l0.1-1.4C102.6,37.1,104.1,35.6,104.1,33.6z"/>
<path d="M106.8,29.4l-0.7-0.1l0.3-2.6c0.9,0.2,1.7,0.2,2.3,0.2c1.5,0,2.3-0.5,2.8-2h-0.2c-0.3,0.2-0.8,0.4-2,0.4
	c-0.7,0-1.8-0.1-3.2-0.4l-0.6,5.9l0.7,0.1c2.3,0.3,4.1,1.2,4.1,3.1c0,1.6-1.2,2.5-2.6,2.5c-1.3,0-1.9-1.1-2.3-2.1h-0.2l-0.2,2
	c0.5,0.3,1.6,0.5,2.5,0.5c2.3,0,4.1-1.4,4.1-3.7C111.4,31.3,109.8,29.8,106.8,29.4z"/>
<path d="M116.6,36.7c-1.8,0-2.5-2.4-2.5-5.6c0-3.3,0.7-5.6,2.4-5.6c1.8,0,2.5,2.4,2.5,5.6C119.1,34.4,118.4,36.7,116.6,36.7z
	 M116.6,37.1c2.7,0,4.3-2.5,4.3-6c0-3.6-1.6-6-4.3-6c-2.7,0-4.3,2.5-4.3,6C112.3,34.8,113.9,37.1,116.6,37.1z"/>
<path d="M40.1,128.6v0.2c0.6,0.1,0.7,0.6,0.3,2l-1,3l-1.3-3.8c-0.2-0.7-0.3-1.1,0.3-1.1v-0.2h-2.8v0.2c0.5,0.1,0.7,0.4,1.1,1.5
	l0.1,0.2l-1.2,3.4l-1.4-3.9c-0.2-0.7-0.3-1.1,0.3-1.1v-0.2h-2.8v0.2c0.5,0.1,0.7,0.5,1.1,1.5l2.1,5.8h0.3l1.8-5l1.8,5H39l1.8-5.3
	c0.5-1.5,0.9-2,1.3-2.1v-0.2L40.1,128.6L40.1,128.6z"/>
<path d="M42.4,135.9h2.7v-0.2c-0.6,0-0.6-0.5-0.6-1.4v-5.9h-0.1l-2.1,0.6v0.2c0.5,0.2,0.7,0.4,0.7,1.3v3.9
	C43,135.3,43,135.8,42.4,135.9C42.4,135.8,42.4,135.9,42.4,135.9z M43.7,127.4c0.5,0,0.9-0.4,0.9-0.9s-0.4-0.9-0.9-0.9
	s-0.9,0.4-0.9,0.9C42.7,127,43.1,127.4,43.7,127.4z"/>
<path d="M50.3,134.7c-0.3,0.3-0.8,0.6-1.3,0.6c-0.7,0-1-0.4-1-1.2v-4.9h2.2l0.2-0.6H48v-1.9h-0.2c-0.5,1.2-1,1.8-1.8,2.1l-0.2,0.1
	v0.3h0.7v5c0,1.3,0.6,1.8,1.7,1.8c0.8,0,1.7-0.4,2.3-1.2L50.3,134.7z"/>
<path d="M57.2,134.4v-3.8c0-1.4-0.7-2.2-1.8-2.2c-0.9,0-1.8,0.5-2.5,1.2V125h-0.1l-2.1,0.4v0.2c0.5,0.2,0.7,0.4,0.7,1.3v7.5
	c0,0.9,0,1.4-0.6,1.4v0.2h2.7v-0.2c-0.6,0-0.6-0.5-0.6-1.4V130c0.5-0.4,1.2-0.6,1.7-0.6c1,0,1.2,0.7,1.2,1.7v3.4
	c0,0.9,0,1.4-0.6,1.4v0.2h2.7v-0.2C57.2,135.8,57.2,135.3,57.2,134.4z"/>
<path d="M65,135.3c-1.3,0-1.9-1.5-1.9-3.3s0.6-3.2,1.9-3.2c1,0,1.5,0.7,1.5,2v3.8C66.1,135,65.6,135.3,65,135.3z M68,134v-9h-0.1
	l-2.1,0.4v0.2c0.5,0.2,0.7,0.4,0.7,1.3v1.9c-0.4-0.2-0.9-0.3-1.5-0.3c-1.9,0-3.5,1.5-3.5,4c0,2.1,1.1,3.7,2.8,3.7
	c0.9,0,1.7-0.5,2.2-1.1l0.2,1.1h0.1l1.8-0.4v-0.2C68.2,135.3,68,134.9,68,134z"/>
<path d="M69.3,135.9H72v-0.2c-0.6,0-0.6-0.5-0.6-1.4v-5.9h-0.1l-2.1,0.6v0.2c0.5,0.2,0.7,0.4,0.7,1.3v3.9
	C69.9,135.3,69.9,135.8,69.3,135.9L69.3,135.9z M70.5,127.4c0.5,0,0.9-0.4,0.9-0.9s-0.4-0.9-0.9-0.9s-0.9,0.4-0.9,0.9
	S70,127.4,70.5,127.4z"/>
<path d="M74.9,136.1c1.6,0,2.7-0.9,2.7-2.3c0-1.3-1-1.8-1.9-2.3l-0.5-0.3c-0.4-0.2-1.1-0.6-1.1-1.4c0-0.7,0.5-1.1,1.2-1.1
	c0.9,0,1.5,0.5,1.9,1.6h0.2v-1.5c-0.5-0.3-1.4-0.4-1.9-0.4c-1.4,0-2.4,0.8-2.4,2.1c0,1.2,0.9,1.7,1.5,2.1l0.5,0.3
	c1,0.6,1.5,0.9,1.5,1.6c0,0.8-0.6,1.2-1.4,1.2c-1.1,0-1.6-0.7-2.2-1.9h-0.2l0.1,1.8C73.4,135.9,74.2,136.1,74.9,136.1z"/>
<path d="M81.5,136.1c1.5,0,2.3-1,2.9-1.9l-0.3-0.2c-0.4,0.6-1,1.1-1.9,1.1c-1.5,0-2.2-1.4-2.2-3.4s0.8-3,1.9-3
	c0.9,0,1.3,0.7,1.6,1.8h0.2l0.7-1c-0.5-0.7-1.4-1.2-2.4-1.2c-1.9,0-3.4,1.7-3.4,3.9C78.4,134.4,79.5,136.1,81.5,136.1z"/>
<path d="M88.3,135.7c-1.3,0-1.9-1.5-1.9-3.5c0-2.1,0.6-3.5,1.9-3.5s1.9,1.5,1.9,3.5C90.2,134.3,89.6,135.7,88.3,135.7z M88.3,136.1
	c2,0,3.5-1.5,3.5-3.9s-1.4-3.8-3.4-3.8s-3.5,1.5-3.5,3.9C84.9,134.6,86.3,136.1,88.3,136.1z"/>
<path d="M98.9,134v-5.6h-0.1l-2.1,0.2v0.2c0.5,0.2,0.7,0.5,0.7,1.4v4.3c-0.5,0.4-1.2,0.6-1.7,0.6c-1,0-1.2-0.7-1.2-1.7v-5h-0.1
	l-2.1,0.2v0.2c0.5,0.2,0.7,0.5,0.7,1.4v3.7c0,1.4,0.7,2.2,1.8,2.2c0.9,0,1.8-0.5,2.6-1.2l0.3,1.2h0.1l1.8-0.4v-0.2
	C99.2,135.3,98.9,134.9,98.9,134z"/>
<path d="M106.7,134.4v-3.8c0-1.4-0.7-2.2-1.8-2.2c-0.9,0-1.8,0.5-2.5,1.2v-1.2h-0.1l-2.1,0.6v0.2c0.5,0.2,0.7,0.4,0.7,1.3v3.9
	c0,0.9,0,1.4-0.6,1.4v0.2h2.7v-0.2c-0.6,0-0.6-0.5-0.6-1.4V130c0.5-0.4,1.2-0.6,1.7-0.6c1,0,1.2,0.7,1.2,1.7v3.4
	c0,0.9,0,1.4-0.6,1.4v0.2h2.7v-0.2C106.7,135.8,106.7,135.3,106.7,134.4z"/>
<path d="M112.4,134.7c-0.3,0.3-0.8,0.6-1.3,0.6c-0.7,0-1.1-0.4-1.1-1.2v-4.9h2.2l0.2-0.6h-2.5v-1.9h-0.2c-0.5,1.2-1,1.8-1.8,2.1
	l-0.2,0.1v0.3h0.7v5c0,1.3,0.6,1.8,1.7,1.8c0.8,0,1.7-0.4,2.3-1.2L112.4,134.7z"/>
<path d="M118.8,136.1c1.5,0,2.3-1,2.9-1.9l-0.3-0.2c-0.4,0.6-1,1.1-1.9,1.1c-1.5,0-2.2-1.4-2.2-3.4s0.8-3,1.9-3
	c0.9,0,1.3,0.7,1.6,1.8h0.2l0.7-1c-0.5-0.7-1.4-1.2-2.4-1.2c-1.9,0-3.4,1.7-3.4,3.9C115.7,134.4,116.8,136.1,118.8,136.1z"/>
<path d="M125.6,135.7c-1.3,0-1.9-1.5-1.9-3.5c0-2.1,0.6-3.5,1.9-3.5s1.9,1.5,1.9,3.5C127.5,134.3,126.9,135.7,125.6,135.7z
	 M125.6,136.1c2,0,3.5-1.5,3.5-3.9s-1.4-3.8-3.4-3.8s-3.5,1.5-3.5,3.9C122.1,134.6,123.5,136.1,125.6,136.1z"/>
<path d="M133.4,135.3c-1.3,0-1.9-1.5-1.9-3.3s0.6-3.2,1.9-3.2c1,0,1.5,0.7,1.5,2v3.8C134.5,135,134,135.3,133.4,135.3z M136.3,134
	v-9h-0.1l-2.1,0.4v0.2c0.5,0.2,0.7,0.4,0.7,1.3v1.9c-0.4-0.2-0.9-0.3-1.5-0.3c-1.9,0-3.5,1.5-3.5,4c0,2.1,1.1,3.7,2.8,3.7
	c0.9,0,1.7-0.5,2.2-1.1l0.2,1.1h0.1l1.8-0.4v-0.2C136.6,135.3,136.3,134.9,136.3,134z"/>
<path d="M141.1,128.8c1,0,1.3,0.8,1.2,2.2h-3C139.5,129.8,140.1,128.8,141.1,128.8z M143.5,134.1c-0.4,0.5-1,1.1-1.9,1.1
	c-1.6,0-2.3-1.4-2.3-3.5c0-0.1,0-0.2,0-0.3h4.4c0.1-1.8-1-3-2.6-3c-1.9,0-3.4,1.7-3.4,3.9c0,2.1,1.1,3.7,3.1,3.7
	c1.5,0,2.4-1,2.9-1.8L143.5,134.1z"/>
</svg>
