<?xml version="1.0" encoding="utf-8"?>
<!-- Generator: Adobe Illustrator 27.0.0, SVG Export Plug-In . SVG Version: 6.00 Build 0)  -->
<svg version="1.1" id="Isolation_Mode" xmlns="http://www.w3.org/2000/svg" xmlns:xlink="http://www.w3.org/1999/xlink" x="0px"
	 y="0px" viewBox="0 0 174.7 175.2" style="enable-background:new 0 0 174.7 175.2;" xml:space="preserve">
<style type="text/css">
	.st0{fill:#70F5FE;}
	.st1{fill:#BFC7F9;}
	.st2{fill:#FFFFFF;}
</style>
<circle class="st0" cx="86.1" cy="89.1" r="86.1"/>
<circle class="st1" cx="87.8" cy="86.7" r="86.1"/>
<path d="M49.6,52.6c-4-0.3-6.6-0.5-6.6-2c0-1.6,3.2-2,5.8-2c3.5,0,6.5,0.7,9,2.5l3.3-4.1c-3.1-2.2-7.5-3.3-12.3-3.3
	c-7.1,0-12.3,2.6-12.3,7.4c0,5,6,6.5,12.7,7c4.6,0.4,6.4,0.9,6.4,2.3c0,1.5-1.9,2.2-5.8,2.2c-4.5,0-8.2-1.2-10.8-3.5l-3.4,4
	c3.5,2.8,8.4,4.4,14.1,4.4c8.1,0,12.4-3.1,12.4-7.7C62.1,54.6,56.9,53.2,49.6,52.6z"/>
<path d="M72.1,57.9L76,50l3.9,7.9H72.1z M84.3,66.8h6.9L79.6,44.4h-7.1L60.9,66.8h6.8l2.1-4.3h12.3L84.3,66.8z"/>
<polygon points="86.7,44.4 97.7,66.8 104.5,66.8 115.5,44.4 108.5,44.4 101.1,60.5 93.7,44.4 "/>
<polygon points="123.1,61.8 123.1,57.8 137.2,57.8 137.2,53.1 123.1,53.1 123.1,49.4 140.2,49.4 140.2,44.4 116.7,44.4 116.7,66.8 
	140.6,66.8 140.6,61.8 "/>
<path d="M39.9,108.8h11V71h-8.3c-3.6,3.1-9,5.8-14,6.5v8.7c4.2-0.7,8.2-1.8,11.3-3.9V108.8z"/>
<path d="M62.1,96.3l-5.8,6.5c5.3,4.5,12.5,7.3,21.6,7.3c14.7,0,20.9-6.2,20.9-13.3c0-8.9-8.6-13-17.2-13c-5.1,0-9.6,1.2-13.4,3.5
	l1.3-8.2h25.3V71H61.2L58,91l7.9,3c3.9-1.7,7.9-2.3,11.6-2.3c6.1,0,10,1.5,10,5s-3.9,4.8-9.7,4.8C70.7,101.4,64.9,98.7,62.1,96.3z"
	/>
<path d="M137.6,104.3c-2.5,0-4.3-1.3-4.3-3.9s1.8-3.9,4.3-3.9s4.3,1.3,4.3,3.9C141.9,103,140.1,104.3,137.6,104.3z M137.6,109.7
	c6.1,0,10.4-4,10.4-9.3s-4.3-9.3-10.4-9.3c-6.1,0-10.4,4-10.4,9.3C127.2,105.7,131.5,109.7,137.6,109.7z M111.6,83.3
	c-2.5,0-4.3-1.3-4.3-3.9c0-2.5,1.8-3.9,4.3-3.9s4.3,1.3,4.3,3.9S114.1,83.3,111.6,83.3z M135.7,71l-29.5,37.8h7.3L142.9,71H135.7z
	 M111.6,88.7c6.1,0,10.4-4.1,10.4-9.3c0-5.2-4.3-9.3-10.4-9.3s-10.5,4.1-10.5,9.3S105.4,88.7,111.6,88.7z"/>
<path class="st2" d="M73.4,148.7H69v-2.2h4.4c1.1,0,1.7,0.2,1.7,1.1S74.5,148.7,73.4,148.7z M69,142.4h4c1,0,1.7,0.2,1.7,1
	s-0.7,1-1.7,1h-4V142.4z M75.3,145.3c1.6-0.1,2.4-1.1,2.4-2.3c0-1.7-1.6-2.7-4.2-2.7H66v10.5h8.1c2.6,0,4.2-1.1,4.2-2.9
	C78.3,146.3,77,145.4,75.3,145.3z"/>
<polygon class="st2" points="91.1,142.7 91.1,140.3 80.1,140.3 80.1,150.8 83.2,150.8 83.2,147.1 89.8,147.1 89.8,144.7 83.2,144.7 
	83.2,142.7 "/>
<path class="st2" d="M95,150.8h3v-10.5h-2.3c-1,0.9-2.5,1.6-3.9,1.8v2.4c1.2-0.2,2.3-0.5,3.1-1.1v7.4H95z"/>
<path class="st2" d="M101.3,147.3l-1.6,1.8c1.5,1.3,3.5,2,6,2c4.1,0,5.8-1.7,5.8-3.7c0-2.5-2.4-3.6-4.8-3.6c-1.4,0-2.7,0.3-3.7,1
	l0.4-2.3h7v-2.3h-9.3l-0.9,5.6l2.2,0.8c1.1-0.5,2.2-0.6,3.2-0.6c1.7,0,2.8,0.4,2.8,1.4s-1.1,1.3-2.7,1.3
	C103.7,148.8,102.1,148,101.3,147.3z"/>
<path d="M55.1,33.8c2.2,0,3.7-1.5,3.7-3.6c0-2-1.3-2.7-2.7-3.4l-0.8-0.4c-1-0.5-1.8-0.9-1.8-2.3c0-1.2,0.7-2,2-2
	c1.2,0,2.1,0.7,2.8,2.3h0.2v-2.1c-0.8-0.4-2-0.6-2.9-0.6c-2,0-3.3,1.4-3.3,3.3c0,1.8,1.2,2.5,2.2,3.1l0.8,0.4
	c1.3,0.7,2.3,1.2,2.3,2.6c0,1.3-0.9,2.2-2.3,2.2c-1.5,0-2.5-1-3.2-2.8h-0.2l0.1,2.6C52.8,33.6,54.2,33.8,55.1,33.8z"/>
<path d="M63.4,33.4c-1.1,0-1.7-0.8-1.7-2.3v-4.3c0.4-0.5,1-0.9,1.7-0.9c1.5,0,2.2,1.7,2.2,3.8S65,33.4,63.4,33.4z M64.2,25.1
	c-1,0-1.9,0.5-2.5,1.2v-1.2h-0.1l-2.4,0.6v0.2c0.5,0.2,0.8,0.5,0.8,1.5v8.1c0,1,0,1.6-0.7,1.6v0.2h3.1v-0.2c-0.7,0-0.7-0.5-0.7-1.6
	v-2.1c0.5,0.2,1,0.4,1.7,0.4c2.1,0,4-1.7,4-4.6C67.4,26.8,66.1,25.1,64.2,25.1z"/>
<path d="M71.9,25.5c1.1,0,1.5,0.9,1.4,2.5h-3.4C70,26.6,70.7,25.5,71.9,25.5z M74.6,31.6c-0.5,0.6-1.2,1.2-2.2,1.2
	c-1.8,0-2.6-1.6-2.6-4c0-0.1,0-0.2,0-0.3h5.1c0.1-2.1-1.1-3.4-2.9-3.4c-2.2,0-3.9,1.9-3.9,4.5c0,2.4,1.3,4.3,3.5,4.3
	c1.7,0,2.7-1.1,3.3-2.1L74.6,31.6z"/>
<path d="M82.7,31.9v-4.3c0-1.6-0.8-2.5-2-2.5c-1,0-2.1,0.6-2.9,1.4v-1.3h-0.1l-2.4,0.6V26c0.5,0.2,0.8,0.5,0.8,1.5v4.4
	c0,1,0,1.6-0.7,1.6v0.2h3.1v-0.2c-0.7,0-0.7-0.5-0.7-1.6v-5c0.6-0.4,1.3-0.7,1.9-0.7c1.1,0,1.4,0.8,1.4,1.9v3.8c0,1,0,1.6-0.7,1.6
	v0.2h3.1v-0.2C82.7,33.4,82.7,32.9,82.7,31.9z"/>
<path d="M87.8,32.9c-1.5,0-2.2-1.7-2.2-3.8c0-2,0.7-3.7,2.2-3.7c1.1,0,1.7,0.8,1.7,2.3V32C89.1,32.5,88.5,32.9,87.8,32.9z
	 M91.2,31.5V21.1H91l-2.4,0.5v0.2c0.5,0.2,0.8,0.5,0.8,1.5v2.1c-0.5-0.2-1-0.4-1.7-0.4c-2.1,0-4,1.7-4,4.6c0,2.4,1.3,4.2,3.2,4.2
	c1,0,1.9-0.5,2.5-1.3l0.3,1.3h0.1l2-0.5v-0.2C91.4,33,91.2,32.5,91.2,31.5z"/>
<path d="M99.1,33.4L99.1,33.4l0.3-4.6c1.2,0.6,2,1.2,2,2.5C101.4,32.6,100.4,33.4,99.1,33.4z M99,26.5c-1-0.5-1.8-0.9-1.8-2.3
	c0-1.1,0.7-2,2-2c0.1,0,0.2,0,0.3,0L99,26.5L99,26.5z M102.6,30.3c0-2-1.4-2.7-2.8-3.4l-0.3-0.1l0.4-4.4c0.8,0.3,1.4,1,2,2.2h0.2
	v-2.1c-0.6-0.3-1.4-0.5-2.1-0.6l0.1-1.5h-0.5l-0.1,1.4c-0.1,0-0.2,0-0.3,0c-2,0-3.3,1.4-3.3,3.3c0,1.8,1.2,2.5,2.3,3l0.7,0.4
	l-0.4,4.8c-1.2-0.2-2-1.2-2.6-2.8h-0.2l0.1,2.6c0.7,0.3,1.8,0.6,2.7,0.6l-0.1,1.4h0.5l0.1-1.4C101.1,33.8,102.6,32.3,102.6,30.3z"/>
<path d="M110.6,30.9c-0.5,1.1-1.1,1.3-2.6,1.3h-3.1c2.7-2.6,5.2-5.1,5.2-7.5c0-1.7-1.3-2.9-3.1-2.9c-1.8,0-3.4,1.3-3.5,3.6h0.4
	c0.3-1.6,1.2-2.5,2.4-2.5c1.3,0,2.2,0.9,2.2,2.5c0,2-1.6,4.1-3.4,6l-1.8,2v0.2h6.9l0.8-2.8L110.6,30.9L110.6,30.9z"/>
<path d="M112.1,29.2l3.4-4.6v4.6H112.1z M119,30.5l0.4-1.6h-0.2c-0.2,0.3-0.4,0.3-0.9,0.3h-1.2v-7.4h-0.3l-6,8.2l0.3,0.5h4.3v1.2
	c0,1.2-0.1,1.8-1,1.8v0.2h3.6v-0.2c-0.9,0-1-0.6-1-1.8v-1.2H119z"/>
<path d="M41.8,125.3v0.2c0.6,0.1,0.7,0.6,0.3,2l-1,3l-1.3-3.8c-0.2-0.7-0.3-1.1,0.3-1.1v-0.2h-2.8v0.2c0.5,0.1,0.7,0.4,1.1,1.5
	l0.1,0.2l-1.2,3.4l-1.4-3.9c-0.2-0.7-0.3-1.1,0.3-1.1v-0.2h-2.8v0.2c0.5,0.1,0.7,0.5,1.1,1.5l2.1,5.8h0.3l1.8-5l1.8,5h0.3l1.8-5.3
	c0.5-1.5,0.9-2,1.3-2.1v-0.2L41.8,125.3L41.8,125.3z"/>
<path d="M44,132.6h2.7v-0.2c-0.6,0-0.6-0.5-0.6-1.4v-5.9H46l-2.1,0.6v0.2c0.5,0.2,0.7,0.4,0.7,1.3v3.9c0,0.9,0,1.4-0.6,1.4
	C44,132.5,44,132.6,44,132.6z M45.2,124.1c0.5,0,0.9-0.4,0.9-0.9s-0.4-0.9-0.9-0.9s-0.9,0.4-0.9,0.9S44.7,124.1,45.2,124.1z"/>
<path d="M51.7,131.4c-0.3,0.3-0.8,0.6-1.3,0.6c-0.7,0-1.1-0.4-1.1-1.2v-4.9h2.2l0.2-0.6h-2.5v-1.9H49c-0.5,1.2-1,1.8-1.8,2.1
	l-0.2,0.1v0.3h0.7v5c0,1.3,0.6,1.8,1.7,1.8c0.8,0,1.7-0.4,2.3-1.2L51.7,131.4z"/>
<path d="M58.5,131.1v-3.8c0-1.4-0.7-2.2-1.8-2.2c-0.9,0-1.8,0.5-2.5,1.2v-4.6H54l-2.1,0.4v0.2c0.5,0.2,0.7,0.4,0.7,1.3v7.5
	c0,0.9,0,1.4-0.6,1.4v0.2h2.7v-0.2c-0.6,0-0.6-0.5-0.6-1.4v-4.4c0.5-0.4,1.2-0.6,1.7-0.6c1,0,1.2,0.7,1.2,1.7v3.4
	c0,0.9,0,1.4-0.6,1.4v0.2h2.7v-0.2C58.5,132.5,58.5,132,58.5,131.1z"/>
<path d="M66,132c-1.3,0-1.9-1.5-1.9-3.3s0.6-3.2,1.9-3.2c1,0,1.5,0.7,1.5,2v3.8C67.1,131.7,66.6,132,66,132z M69,130.8v-9.1h-0.1
	l-2.1,0.4v0.2c0.5,0.2,0.7,0.4,0.7,1.3v1.9c-0.4-0.2-0.9-0.3-1.5-0.3c-1.9,0-3.5,1.5-3.5,4c0,2.1,1.1,3.7,2.8,3.7
	c0.9,0,1.7-0.5,2.2-1.1l0.2,1.1h0.1l1.8-0.4v-0.2C69.2,132.1,69,131.7,69,130.8z"/>
<path d="M70.2,132.6h2.7v-0.2c-0.6,0-0.6-0.5-0.6-1.4v-5.9h-0.1l-2.1,0.6v0.2c0.5,0.2,0.7,0.4,0.7,1.3v3.9c0,0.9,0,1.4-0.6,1.4
	V132.6z M71.4,124.1c0.5,0,0.9-0.4,0.9-0.9s-0.4-0.9-0.9-0.9s-0.9,0.4-0.9,0.9S70.9,124.1,71.4,124.1z"/>
<path d="M75.6,132.8c1.6,0,2.7-0.9,2.7-2.3c0-1.3-1-1.8-1.9-2.3l-0.5-0.3c-0.4-0.2-1.1-0.6-1.1-1.4c0-0.7,0.5-1.1,1.2-1.1
	c0.9,0,1.5,0.5,1.9,1.6H78v-1.5c-0.5-0.3-1.4-0.4-1.9-0.4c-1.4,0-2.4,0.8-2.4,2.1c0,1.2,0.9,1.7,1.5,2.1l0.5,0.3
	c1,0.6,1.5,0.9,1.5,1.6c0,0.8-0.6,1.2-1.4,1.2c-1.1,0-1.6-0.7-2.2-1.9h-0.2l0.1,1.8C74.1,132.6,74.9,132.8,75.6,132.8z"/>
<path d="M82,132.8c1.5,0,2.3-1,2.9-1.9l-0.3-0.2c-0.4,0.6-1,1.1-1.9,1.1c-1.5,0-2.2-1.4-2.2-3.4s0.8-3,1.9-3c0.9,0,1.3,0.7,1.6,1.8
	h0.2l0.7-1c-0.5-0.7-1.4-1.2-2.4-1.2c-1.9,0-3.4,1.7-3.4,3.9C79,131.1,80.1,132.8,82,132.8z"/>
<path d="M88.8,132.4c-1.3,0-1.9-1.5-1.9-3.5c0-2.1,0.6-3.5,1.9-3.5s1.9,1.5,1.9,3.5C90.6,131,90,132.4,88.8,132.4z M88.7,132.8
	c2,0,3.5-1.5,3.5-3.9c0-2.4-1.4-3.8-3.4-3.8s-3.5,1.5-3.5,3.9C85.3,131.4,86.7,132.8,88.7,132.8z"/>
<path d="M99.2,130.8v-5.6h-0.1l-2.1,0.2v0.2c0.5,0.2,0.7,0.5,0.7,1.4v4.3c-0.5,0.4-1.2,0.6-1.7,0.6c-1,0-1.2-0.7-1.2-1.7v-5h-0.1
	l-2.1,0.2v0.2c0.5,0.2,0.7,0.5,0.7,1.4v3.7c0,1.4,0.7,2.2,1.8,2.2c0.9,0,1.8-0.5,2.6-1.2l0.3,1.2h0.1l1.8-0.4v-0.2
	C99.4,132.1,99.2,131.7,99.2,130.8z"/>
<path d="M106.9,131.1v-3.8c0-1.4-0.7-2.2-1.8-2.2c-0.9,0-1.8,0.5-2.5,1.2v-1.2h-0.1l-2.1,0.6v0.2c0.5,0.2,0.7,0.4,0.7,1.3v3.9
	c0,0.9,0,1.4-0.6,1.4v0.2h2.7v-0.2c-0.6,0-0.6-0.5-0.6-1.4v-4.4c0.5-0.4,1.2-0.6,1.7-0.6c1,0,1.2,0.7,1.2,1.7v3.4
	c0,0.9,0,1.4-0.6,1.4v0.2h2.7v-0.2C106.9,132.5,106.9,132,106.9,131.1z"/>
<path d="M112.5,131.4c-0.3,0.3-0.8,0.6-1.3,0.6c-0.7,0-1.1-0.4-1.1-1.2v-4.9h2.2l0.2-0.6h-2.4v-1.9h-0.2c-0.5,1.2-1,1.8-1.8,2.1
	l-0.2,0.1v0.3h0.7v5c0,1.3,0.6,1.8,1.7,1.8c0.8,0,1.7-0.4,2.3-1.2L112.5,131.4z"/>
<path d="M118.5,132.8c1.5,0,2.3-1,2.9-1.9l-0.3-0.2c-0.4,0.6-1.1,1.1-1.9,1.1c-1.5,0-2.2-1.4-2.2-3.4s0.8-3,1.9-3
	c0.9,0,1.3,0.7,1.6,1.8h0.2l0.7-1c-0.5-0.7-1.4-1.2-2.4-1.2c-1.9,0-3.4,1.7-3.4,3.9C115.4,131.1,116.6,132.8,118.5,132.8z"/>
<path d="M125.2,132.4c-1.3,0-1.9-1.5-1.9-3.5c0-2.1,0.6-3.5,1.9-3.5s1.9,1.5,1.9,3.5C127.1,131,126.5,132.4,125.2,132.4z
	 M125.2,132.8c2,0,3.5-1.5,3.5-3.9c0-2.4-1.4-3.8-3.4-3.8s-3.5,1.5-3.5,3.9C121.7,131.4,123.1,132.8,125.2,132.8z"/>
<path d="M132.8,132c-1.3,0-1.9-1.5-1.9-3.3s0.6-3.2,1.9-3.2c1,0,1.5,0.7,1.5,2v3.8C133.9,131.7,133.5,132,132.8,132z M135.8,130.8
	v-9.1h-0.1l-2.1,0.4v0.2c0.5,0.2,0.7,0.4,0.7,1.3v1.9c-0.4-0.2-0.9-0.3-1.5-0.3c-1.9,0-3.5,1.5-3.5,4c0,2.1,1.1,3.7,2.8,3.7
	c0.9,0,1.7-0.5,2.2-1.1l0.2,1.1h0.1l1.8-0.4v-0.2C136,132.1,135.8,131.7,135.8,130.8z"/>
<path d="M140.4,125.5c1,0,1.3,0.8,1.2,2.2h-3C138.8,126.5,139.4,125.5,140.4,125.5z M142.8,130.8c-0.4,0.5-1.1,1.1-1.9,1.1
	c-1.6,0-2.3-1.4-2.3-3.5c0-0.1,0-0.2,0-0.3h4.4c0.1-1.8-1-3-2.6-3c-1.9,0-3.4,1.7-3.4,3.9c0,2.1,1.1,3.7,3.1,3.7
	c1.5,0,2.4-1,2.9-1.8L142.8,130.8z"/>
</svg>
