<?xml version="1.0" encoding="utf-8"?>
<!-- Generator: Adobe Illustrator 27.0.0, SVG Export Plug-In . SVG Version: 6.00 Build 0)  -->
<svg version="1.1" id="Isolation_Mode" xmlns="http://www.w3.org/2000/svg" xmlns:xlink="http://www.w3.org/1999/xlink" x="0px"
	 y="0px" viewBox="0 0 174.7 175.2" style="enable-background:new 0 0 174.7 175.2;" xml:space="preserve">
<style type="text/css">
	.st0{fill:#70F5FE;}
	.st1{fill:#BFC7F9;}
	.st2{fill:#FFFFFF;}
</style>
<circle class="st0" cx="86.1" cy="89.1" r="86.1"/>
<circle class="st1" cx="88.4" cy="86.6" r="86.1"/>
<path d="M52.2,55.9c-4-0.3-6.6-0.5-6.6-2c0-1.6,3.2-2,5.8-2c3.5,0,6.5,0.7,9,2.5l3.3-4.1c-3.1-2.2-7.5-3.3-12.3-3.3
	c-7.1,0-12.3,2.6-12.3,7.4c0,5,6,6.5,12.7,7c4.6,0.4,6.4,0.9,6.4,2.3c0,1.5-1.9,2.2-5.8,2.2c-4.5,0-8.2-1.2-10.8-3.5l-3.4,4
	c3.5,2.8,8.4,4.4,14.1,4.4c8.1,0,12.4-3.1,12.4-7.7C64.8,58,59.6,56.5,52.2,55.9z"/>
<path d="M74.8,61.2l3.9-7.9l3.9,7.9H74.8z M86.9,70.1h6.9L82.3,47.7h-7.1L63.6,70.1h6.8l2.1-4.3h12.3L86.9,70.1z"/>
<polygon points="89.4,47.7 100.3,70.1 107.2,70.1 118.1,47.7 111.2,47.7 103.8,63.9 96.4,47.7 "/>
<polygon points="125.8,65.2 125.8,61.2 139.9,61.2 139.9,56.4 125.8,56.4 125.8,52.7 142.9,52.7 142.9,47.7 119.4,47.7 119.4,70.1 
	143.3,70.1 143.3,65.2 "/>
<path d="M24,81.6l6,5.8c4-3.9,8.7-6.1,13.9-6.1c4.2,0,8.2,1.3,8.2,3.8s-4.3,3.7-9.8,5.5c-11.2,3.3-17.9,9.5-18.9,16.8v4.8H64v-8.3
	H36.4c1.2-1.9,6.3-4.2,12.5-6.2c8.3-2.5,14.3-6.3,14.3-12.7c0-8.2-9.7-11.7-18.8-11.7C35.5,73.2,27.9,76.8,24,81.6z"/>
<path d="M73.2,99.6l-5.8,6.5c5.3,4.5,12.5,7.3,21.6,7.3c14.7,0,20.9-6.2,20.9-13.3c0-8.9-8.6-13-17.2-13c-5.1,0-9.6,1.2-13.4,3.5
	l1.3-8.2h25.3v-8.2H72.4l-3.2,20l7.9,3c3.9-1.7,7.9-2.3,11.6-2.3c6.1,0,10,1.5,10,5s-3.9,4.8-9.7,4.8C81.9,104.7,76.1,102,73.2,99.6
	z"/>
<path d="M148.7,107.7c-2.5,0-4.3-1.3-4.3-3.9c0-2.6,1.8-3.9,4.3-3.9c2.5,0,4.3,1.3,4.3,3.9C153,106.3,151.3,107.7,148.7,107.7z
	 M148.7,113.1c6.1,0,10.4-4,10.4-9.3c0-5.3-4.3-9.3-10.4-9.3s-10.4,4-10.4,9.3C138.3,109,142.6,113.1,148.7,113.1z M122.7,86.7
	c-2.5,0-4.3-1.3-4.3-3.9c0-2.5,1.8-3.9,4.3-3.9c2.5,0,4.3,1.3,4.3,3.9C127,85.3,125.2,86.7,122.7,86.7z M146.8,74.3l-29.5,37.8h7.3
	l29.4-37.8H146.8z M122.7,92c6.1,0,10.4-4.1,10.4-9.3c0-5.2-4.3-9.3-10.4-9.3c-6.1,0-10.5,4.1-10.5,9.3C112.2,88,116.6,92,122.7,92z
	"/>
<path class="st2" d="M72.3,152h-4.4v-2.2h4.4c1.1,0,1.7,0.2,1.7,1.1S73.4,152,72.3,152z M67.9,145.8h4c1,0,1.7,0.2,1.7,1
	c0,0.8-0.7,1-1.7,1h-4V145.8z M74.2,148.7c1.6-0.1,2.4-1.1,2.4-2.3c0-1.7-1.6-2.7-4.2-2.7h-7.5v10.5H73c2.6,0,4.2-1.1,4.2-2.9
	C77.2,149.7,75.9,148.8,74.2,148.7z"/>
<polygon class="st2" points="90,146.1 90,143.7 79,143.7 79,154.2 82.1,154.2 82.1,150.4 88.7,150.4 88.7,148.1 82.1,148.1 
	82.1,146.1 "/>
<path class="st2" d="M91,145.7l1.7,1.6c1.1-1.1,2.4-1.7,3.9-1.7c1.2,0,2.3,0.4,2.3,1.1s-1.2,1-2.7,1.5c-3.1,0.9-5,2.6-5.2,4.7v1.3
	h11.3v-2.3h-7.7c0.3-0.5,1.8-1.2,3.5-1.7c2.3-0.7,4-1.7,4-3.5c0-2.3-2.7-3.3-5.2-3.3C94.2,143.3,92.1,144.3,91,145.7z"/>
<path class="st2" d="M104.9,150.7l-1.6,1.8c1.5,1.3,3.5,2,6,2c4.1,0,5.8-1.7,5.8-3.7c0-2.5-2.4-3.6-4.8-3.6c-1.4,0-2.7,0.3-3.7,1
	l0.4-2.3h7v-2.3h-9.3l-0.9,5.6l2.2,0.8c1.1-0.5,2.2-0.6,3.2-0.6c1.7,0,2.8,0.4,2.8,1.4s-1.1,1.3-2.7,1.3
	C107.3,152.1,105.7,151.3,104.9,150.7z"/>
<path d="M59.3,37.2c2.2,0,3.7-1.5,3.7-3.6c0-2-1.3-2.7-2.7-3.4l-0.8-0.4c-1-0.5-1.8-0.9-1.8-2.3c0-1.2,0.7-2,2-2
	c1.2,0,2.1,0.7,2.8,2.3h0.2v-2.1c-0.8-0.4-2-0.6-2.9-0.6c-2,0-3.3,1.4-3.3,3.3c0,1.8,1.2,2.5,2.2,3.1l0.8,0.4
	c1.3,0.7,2.3,1.2,2.3,2.6c0,1.3-0.9,2.2-2.3,2.2c-1.5,0-2.5-1-3.2-2.8h-0.2l0.1,2.6C57,36.9,58.4,37.2,59.3,37.2z"/>
<path d="M67.6,36.8c-1.1,0-1.7-0.8-1.7-2.3v-4.3c0.4-0.5,1-0.9,1.7-0.9c1.5,0,2.2,1.7,2.2,3.8C69.8,35.1,69.1,36.8,67.6,36.8z
	 M68.4,28.4c-1,0-1.9,0.5-2.5,1.2v-1.2h-0.1l-2.4,0.6v0.2c0.5,0.2,0.8,0.5,0.8,1.5v8.1c0,1,0,1.6-0.7,1.6v0.2h3.1v-0.2
	c-0.7,0-0.7-0.5-0.7-1.6v-2.1c0.5,0.2,1,0.4,1.7,0.4c2.1,0,4-1.7,4-4.6C71.6,30.1,70.3,28.4,68.4,28.4z"/>
<path d="M76,28.8c1.1,0,1.5,0.9,1.4,2.5H74C74.2,29.9,74.9,28.8,76,28.8z M78.8,34.9c-0.5,0.6-1.2,1.2-2.2,1.2c-1.8,0-2.6-1.6-2.6-4
	c0-0.1,0-0.2,0-0.3H79c0.1-2.1-1.1-3.4-2.9-3.4c-2.2,0-3.9,1.9-3.9,4.5c0,2.4,1.3,4.3,3.5,4.3c1.7,0,2.7-1.1,3.3-2.1L78.8,34.9z"/>
<path d="M86.8,35.2v-4.3c0-1.6-0.8-2.5-2-2.5c-1,0-2.1,0.6-2.9,1.4v-1.3h-0.1l-2.4,0.6v0.2c0.5,0.2,0.8,0.5,0.8,1.5v4.4
	c0,1,0,1.6-0.7,1.6V37h3.1v-0.2c-0.7,0-0.7-0.5-0.7-1.6v-5c0.6-0.4,1.3-0.7,1.9-0.7c1.1,0,1.4,0.8,1.4,1.9v3.8c0,1,0,1.6-0.7,1.6V37
	h3.1v-0.2C86.9,36.8,86.8,36.2,86.8,35.2z"/>
<path d="M92,36.3c-1.5,0-2.2-1.7-2.2-3.8c0-2,0.7-3.7,2.2-3.7c1.1,0,1.7,0.8,1.7,2.3v4.3C93.2,35.9,92.7,36.3,92,36.3z M95.3,34.8
	V24.5h-0.1L92.9,25v0.2c0.5,0.2,0.8,0.5,0.8,1.5v2.1c-0.5-0.2-1-0.4-1.7-0.4c-2.1,0-4,1.7-4,4.6c0,2.4,1.3,4.2,3.2,4.2
	c1,0,1.9-0.5,2.5-1.3l0.3,1.3h0.1l2-0.5v-0.2C95.6,36.3,95.3,35.9,95.3,34.8z"/>
<path d="M103.3,36.7h-0.1l0.4-4.6c1.2,0.6,2,1.2,2,2.5C105.5,35.9,104.5,36.7,103.3,36.7z M103.2,29.9c-1-0.5-1.8-0.9-1.8-2.3
	c0-1.1,0.7-2,2-2c0.1,0,0.2,0,0.3,0L103.2,29.9L103.2,29.9z M106.8,33.7c0-2-1.4-2.7-2.8-3.4l-0.3-0.1l0.4-4.4c0.8,0.3,1.4,1,2,2.2
	h0.2v-2.1c-0.6-0.3-1.4-0.5-2.1-0.6l0.1-1.5h-0.5l-0.1,1.4c-0.1,0-0.2,0-0.3,0c-2,0-3.3,1.4-3.3,3.3c0,1.8,1.2,2.5,2.3,3l0.7,0.4
	l-0.4,4.8c-1.2-0.2-2-1.2-2.6-2.8h-0.2l0.1,2.6c0.7,0.3,1.8,0.6,2.7,0.6l-0.1,1.4h0.5l0.1-1.4C105.3,37.1,106.8,35.6,106.8,33.7z"/>
<path d="M114.6,25.3h-6.8l-0.4,2.7h0.2c0.5-0.9,0.8-1.1,2.6-1.1h3.2c-2.2,3.4-3.9,6.7-4.2,10.1h2c-0.1-3.9,1.1-7.6,3.4-11.5V25.3z"
	/>
<path d="M116.4,29.5l-0.7-0.1l0.3-2.6c0.9,0.2,1.7,0.2,2.3,0.2c1.5,0,2.3-0.5,2.8-2h-0.2c-0.3,0.2-0.8,0.4-2,0.4
	c-0.7,0-1.8-0.1-3.2-0.4L115,31l0.7,0.1c2.3,0.3,4.1,1.2,4.1,3.1c0,1.6-1.2,2.5-2.6,2.5c-1.3,0-1.9-1.1-2.3-2.1h-0.2l-0.2,2
	c0.5,0.3,1.6,0.5,2.5,0.5c2.3,0,4.1-1.4,4.1-3.7C121.1,31.3,119.5,29.9,116.4,29.5z"/>
<path d="M43,128.6v0.2c0.6,0.1,0.7,0.6,0.3,2l-1,3l-1.3-3.8c-0.2-0.7-0.3-1.1,0.4-1.1v-0.2h-2.8v0.2c0.5,0.1,0.7,0.4,1.1,1.5
	l0.1,0.2l-1.2,3.4l-1.4-3.9c-0.2-0.7-0.3-1.1,0.4-1.1v-0.2h-2.8v0.2c0.5,0.1,0.7,0.5,1.1,1.5l2.1,5.8h0.3l1.8-5l1.8,5H42l1.8-5.3
	c0.5-1.5,0.9-2,1.3-2.1v-0.2H43z"/>
<path d="M45.2,136h2.7v-0.2c-0.6,0-0.6-0.5-0.6-1.4v-5.9h-0.1l-2.1,0.6v0.2c0.5,0.2,0.7,0.4,0.7,1.3v3.9c0,0.9,0,1.4-0.6,1.4V136z
	 M46.5,127.4c0.5,0,0.9-0.4,0.9-0.9c0-0.5-0.4-0.9-0.9-0.9c-0.5,0-0.9,0.4-0.9,0.9C45.5,127,45.9,127.4,46.5,127.4z"/>
<path d="M53,134.8c-0.3,0.3-0.8,0.6-1.3,0.6c-0.7,0-1-0.4-1-1.2v-4.9h2.2l0.2-0.6h-2.5v-1.9h-0.2c-0.5,1.2-1,1.8-1.8,2.1l-0.2,0.1
	v0.3h0.7v5c0,1.3,0.6,1.8,1.7,1.8c0.8,0,1.7-0.4,2.3-1.2L53,134.8z"/>
<path d="M59.7,134.4v-3.8c0-1.4-0.7-2.2-1.8-2.2c-0.9,0-1.8,0.5-2.5,1.2V125h-0.1l-2.1,0.4v0.2c0.5,0.2,0.7,0.4,0.7,1.3v7.5
	c0,0.9,0,1.4-0.6,1.4v0.2H56v-0.2c-0.6,0-0.6-0.5-0.6-1.4v-4.4c0.5-0.4,1.2-0.6,1.7-0.6c1,0,1.2,0.7,1.2,1.7v3.4
	c0,0.9,0,1.4-0.6,1.4v0.2h2.7v-0.2C59.7,135.8,59.7,135.3,59.7,134.4z"/>
<path d="M67.3,135.4c-1.3,0-1.9-1.5-1.9-3.3c0-1.8,0.6-3.2,1.9-3.2c1,0,1.5,0.7,1.5,2v3.8C68.4,135,67.9,135.4,67.3,135.4z
	 M70.2,134.1V125h-0.1l-2.1,0.4v0.2c0.5,0.2,0.7,0.4,0.7,1.3v1.9c-0.4-0.2-0.9-0.3-1.5-0.3c-1.9,0-3.5,1.5-3.5,4
	c0,2.1,1.1,3.7,2.8,3.7c0.9,0,1.7-0.5,2.2-1.1l0.2,1.1h0.1l1.8-0.4v-0.2C70.4,135.4,70.2,135,70.2,134.1z"/>
<path d="M71.4,136h2.7v-0.2c-0.6,0-0.6-0.5-0.6-1.4v-5.9h-0.1l-2.1,0.6v0.2c0.5,0.2,0.7,0.4,0.7,1.3v3.9c0,0.9,0,1.4-0.6,1.4V136z
	 M72.6,127.4c0.5,0,0.9-0.4,0.9-0.9c0-0.5-0.4-0.9-0.9-0.9c-0.5,0-0.9,0.4-0.9,0.9C71.7,127,72.1,127.4,72.6,127.4z"/>
<path d="M76.9,136.2c1.6,0,2.7-0.9,2.7-2.3c0-1.3-1-1.8-1.9-2.3l-0.5-0.3c-0.4-0.2-1.1-0.6-1.1-1.4c0-0.7,0.5-1.1,1.2-1.1
	c0.9,0,1.5,0.5,1.9,1.6h0.2v-1.5c-0.5-0.3-1.4-0.4-1.9-0.4c-1.4,0-2.4,0.8-2.4,2.1c0,1.2,0.9,1.7,1.5,2.1L77,133
	c1,0.6,1.5,0.9,1.5,1.6c0,0.8-0.6,1.2-1.4,1.2c-1.1,0-1.6-0.7-2.2-1.9h-0.2l0.1,1.8C75.3,136,76.2,136.2,76.9,136.2z"/>
<path d="M83.3,136.2c1.5,0,2.3-1,2.9-1.9l-0.3-0.2c-0.4,0.6-1,1.1-1.9,1.1c-1.5,0-2.2-1.4-2.2-3.4c0-2,0.8-3,1.9-3
	c0.9,0,1.3,0.7,1.6,1.8h0.2l0.7-1c-0.5-0.7-1.4-1.2-2.4-1.2c-1.9,0-3.4,1.7-3.4,3.9C80.2,134.5,81.3,136.2,83.3,136.2z"/>
<path d="M90,135.8c-1.3,0-1.9-1.5-1.9-3.5c0-2.1,0.6-3.5,1.9-3.5c1.3,0,1.9,1.5,1.9,3.5C91.9,134.4,91.3,135.8,90,135.8z M90,136.2
	c2,0,3.5-1.5,3.5-3.9c0-2.4-1.4-3.8-3.4-3.8c-2,0-3.5,1.5-3.5,3.9C86.5,134.7,87.9,136.2,90,136.2z"/>
<path d="M100.5,134.1v-5.6h-0.1l-2.1,0.2v0.2c0.5,0.2,0.7,0.5,0.7,1.4v4.3c-0.5,0.4-1.2,0.6-1.7,0.6c-1,0-1.2-0.7-1.2-1.7v-5H96
	l-2.1,0.2v0.2c0.5,0.2,0.7,0.5,0.7,1.4v3.7c0,1.4,0.7,2.2,1.8,2.2c0.9,0,1.8-0.5,2.6-1.2l0.3,1.2h0.1l1.8-0.4v-0.2
	C100.7,135.4,100.5,135,100.5,134.1z"/>
<path d="M108.1,134.4v-3.8c0-1.4-0.7-2.2-1.8-2.2c-0.9,0-1.8,0.5-2.5,1.2v-1.2h-0.1l-2.1,0.6v0.2c0.5,0.2,0.7,0.4,0.7,1.3v3.9
	c0,0.9,0,1.4-0.6,1.4v0.2h2.7v-0.2c-0.6,0-0.6-0.5-0.6-1.4v-4.4c0.5-0.4,1.2-0.6,1.7-0.6c1,0,1.2,0.7,1.2,1.7v3.4
	c0,0.9,0,1.4-0.6,1.4v0.2h2.7v-0.2C108.1,135.8,108.1,135.3,108.1,134.4z"/>
<path d="M113.7,134.8c-0.3,0.3-0.8,0.6-1.3,0.6c-0.7,0-1-0.4-1-1.2v-4.9h2.2l0.2-0.6h-2.5v-1.9h-0.2c-0.5,1.2-1,1.8-1.8,2.1
	l-0.2,0.1v0.3h0.7v5c0,1.3,0.6,1.8,1.7,1.8c0.8,0,1.7-0.4,2.3-1.2L113.7,134.8z"/>
<path d="M119.8,136.2c1.5,0,2.3-1,2.9-1.9l-0.3-0.2c-0.4,0.6-1,1.1-1.9,1.1c-1.5,0-2.2-1.4-2.2-3.4c0-2,0.8-3,1.9-3
	c0.9,0,1.3,0.7,1.6,1.8h0.2l0.7-1c-0.5-0.7-1.4-1.2-2.4-1.2c-1.9,0-3.4,1.7-3.4,3.9C116.7,134.5,117.8,136.2,119.8,136.2z"/>
<path d="M126.5,135.8c-1.3,0-1.9-1.5-1.9-3.5c0-2.1,0.6-3.5,1.9-3.5c1.3,0,1.9,1.5,1.9,3.5C128.3,134.4,127.7,135.8,126.5,135.8z
	 M126.4,136.2c2,0,3.5-1.5,3.5-3.9c0-2.4-1.4-3.8-3.4-3.8c-2,0-3.5,1.5-3.5,3.9C123,134.7,124.4,136.2,126.4,136.2z"/>
<path d="M134.1,135.4c-1.3,0-1.9-1.5-1.9-3.3c0-1.8,0.6-3.2,1.9-3.2c1,0,1.5,0.7,1.5,2v3.8C135.2,135,134.7,135.4,134.1,135.4z
	 M137,134.1V125h-0.1l-2.1,0.4v0.2c0.5,0.2,0.7,0.4,0.7,1.3v1.9c-0.4-0.2-0.9-0.3-1.5-0.3c-1.9,0-3.5,1.5-3.5,4
	c0,2.1,1.1,3.7,2.8,3.7c0.9,0,1.7-0.5,2.2-1.1l0.2,1.1h0.1l1.8-0.4v-0.2C137.3,135.4,137,135,137,134.1z"/>
<path d="M141.6,128.8c1,0,1.3,0.8,1.2,2.2h-3C140,129.8,140.6,128.8,141.6,128.8z M144,134.2c-0.4,0.5-1.1,1.1-1.9,1.1
	c-1.6,0-2.3-1.4-2.3-3.5c0-0.1,0-0.2,0-0.3h4.4c0.1-1.8-1-3-2.6-3c-1.9,0-3.4,1.7-3.4,3.9c0,2.1,1.1,3.7,3.1,3.7
	c1.5,0,2.4-1,2.9-1.8L144,134.2z"/>
</svg>
