<svg id="c934bd2e-c3b7-4e76-ae65-a1347ed17b18" data-name="Layer 1" xmlns="http://www.w3.org/2000/svg" xmlns:xlink="http://www.w3.org/1999/xlink" viewBox="0 0 232.58 124.64"><defs><clipPath id="cd1de8c8-17d6-4702-9936-d77d7167e198"><rect width="232.58" height="124.61" style="fill:none"/></clipPath></defs><title>logo-white</title><polygon points="221.68 96.52 220.85 96.52 220.85 90.03 218.42 90.03 218.42 89.27 224.12 89.27 224.12 90.03 221.68 90.03 221.68 96.52" style="fill:#fff"/><polygon points="231.75 89.27 229.11 93.23 226.47 89.27 225.64 89.27 225.64 96.52 226.44 96.52 226.44 90.66 229.08 94.53 229.12 94.53 231.76 90.65 231.76 96.52 232.58 96.52 232.58 89.27 231.75 89.27" style="fill:#fff"/><g style="clip-path:url(#cd1de8c8-17d6-4702-9936-d77d7167e198)"><path d="M163,25.92c.22-6.43,4.05-19.25,11.44-25.92l.44.38c-6.18,8.85-6.82,17.32-7.11,25.54Z" style="fill:#fff"/><path d="M35.64,31.7V41.9H34.26s0-4.9-.81-6a4.82,4.82,0,0,0-3.36-2,60.7,60.7,0,0,0-9.18-.48v62l4.42.13V97H10.49V95.47L15,95.34v-62c-2.64,0-7.47-.15-9.44.36a4.23,4.23,0,0,0-2.64,1.7c-1.31,1.41-1.54,6.5-1.54,6.5H0V31.7H35.64" style="fill:#fff"/><path d="M168.9,31.1V95.34l4.39.13v1.48H158.65V95.5l4.31-.16V33.22h-3.84V31.7s6.66.1,9.74-.6" style="fill:#fff"/><path d="M53.58,30.52c15.66,0,19.11,25.36,19.07,34.62,0,7.95-2.9,33.19-19.51,33S33.67,71.58,33.72,63.73c0-9.39,3.81-33.21,19.86-33.21m-.16,1.74c-4.38,0-8.14,3.37-10,7.73-3.18,7.49-3.24,16.2-3.33,24.13-.06,5.13,1.07,16.43,2.18,20.74C44.5,93.44,48,96.46,53.56,96.54c6.91.11,9.53-7.39,10.72-13.35a87.19,87.19,0,0,0,1.78-19c-.17-8.63-.26-15.47-3.1-24-1.49-4.49-4.83-7.93-9.57-8" style="fill:#fff"/><path d="M96.48,30.52A11.86,11.86,0,0,1,102.2,32a14.44,14.44,0,0,1,5,4.76c5.54,8.08,7.3,19.51,6.76,29.08-.56,10-2.4,20.64-9.56,28.5A10.81,10.81,0,0,1,94,97.72c-5.64-1.36-7.82-7.72-9-13.17,0-.1-.18.1-.22,0,.07,1.44.29,2.89.25,4.63-.1,7.54.2,33.83.2,33.83l4.19.26v1.37H75.09V123.2l4.26-.22V33.22H75.24V31.7c2.85,0,6.66.14,9.53-.62.07,2.68,0,8.93-.43,13.45,0,0,.18,0,.18.15,1.46-7.42,5.12-14,12-14.17m-.21,1.87c-4.72.12-7.49,5-8.6,8.14-3.78,10.76-3.81,24.54-2.39,36.94a39.43,39.43,0,0,0,4,13.55c2.93,5.93,8.12,6,11,3.61,3.73-3,5.6-9.94,6.67-16.69a184.36,184.36,0,0,0,1-18.82c-.35-7.39-1-13.94-3.4-20.62a8.74,8.74,0,0,0-8.26-6.1" style="fill:#fff"/><path d="M138.19,30.52A11.88,11.88,0,0,1,143.9,32a14.44,14.44,0,0,1,5,4.76c5.53,8.08,7.3,19.51,6.76,29.08-.56,10-2.41,20.64-9.57,28.5a10.8,10.8,0,0,1-10.42,3.42c-5.63-1.36-7.82-7.72-9-13.17,0-.1-.18.1-.22,0,.09,1.44.27,2.89.26,4.63-.1,7.54.19,33.83.19,33.83l4.2.26v1.37H116.8V123.2l4.2-.2V33.24h-4V31.7c2.85,0,6.65.14,9.53-.62.06,2.68,0,8.93-.43,13.45,0,0,.19,0,.18.15,1.46-7.42,5.12-14,12-14.17M138,32.39c-4.73.12-7.5,5-8.61,8.14-3.77,10.76-3.8,24.54-2.39,36.94A39.71,39.71,0,0,0,131,91c2.93,5.93,8.12,6,11,3.61,3.73-3,5.61-9.94,6.68-16.69a181.57,181.57,0,0,0,.94-18.82c-.35-7.39-1-13.94-3.39-20.62a8.73,8.73,0,0,0-8.25-6.1" style="fill:#fff"/><path d="M178.13,97V95.49l4.51-.2v-62l-4.54-.16V31.68h14.66v1.53l-4.53.16v28.4s-.09,2.92-.21,3.38l.26.2s1-2,1.45-2.77,13.51-24.79,13.94-25.83a3.43,3.43,0,0,0-.32-2.87c-.57-.57-3.66-.69-3.88-.69v-1.5h12.88v1.5a16.61,16.61,0,0,0-2.6.11,4.17,4.17,0,0,0-2.44,1.81c-.63,1-10.82,19.44-11,19.64l-.35.39a3.51,3.51,0,0,0,.18.41c.14.25,15.19,39.75,15.19,39.75l4.09.19V97H200.07V95.49l4.49-.19L193,63.75a6.35,6.35,0,0,1-.35-1.4l-.25-.15-.21.59c-.14.37-4,7.15-4,7.15V95.27l4.74.26V97Z" style="fill:#fff"/></g></svg>