<svg id="a7cc8b77-5e08-44a3-ae99-3e116125c997" data-name="Layer 1" xmlns="http://www.w3.org/2000/svg" viewBox="0 0 655 655"><title>mbg</title><circle cx="327.5" cy="327.5" r="327.5" style="fill:#fff"/><circle cx="328.62" cy="328.88" r="313.62" style="fill:#278a9f"/><circle cx="329.61" cy="324.61" r="210.79" style="fill:#fff"/><path d="M186.32,331.46,209.85,309c10.66,12,21.76,18.65,37.52,18.65,12.88,0,22-7.33,22-18.87v-.44c0-12.65-11.32-19.76-30.41-19.76H224.73l-5.33-21.76,37.07-37.3h-61v-29.3h105V226l-39.29,37.52c21.09,3.55,41.74,14.65,41.74,43.51v.44c0,29.3-21.31,50.84-55.94,50.84C219,358.32,199.64,347.22,186.32,331.46Z" style="fill:#26899e"/><path d="M327.73,278.4V278c0-45.07,28-80.36,69.26-80.36,41.07,0,68.82,34.85,68.82,79.92V278c0,45.07-27.75,80.36-69.26,80.36S327.73,323.47,327.73,278.4Zm103,0V278c0-28.19-13.76-49.51-34.19-49.51s-33.74,20.65-33.74,49.06V278c0,28.42,13.54,49.51,34.19,49.51S430.74,306.59,430.74,278.4Z" style="fill:#26899e"/><path d="M199.48,373h35.76c28.82,0,48.73,19.78,48.73,45.59v.26c0,25.81-19.91,45.85-48.73,45.85H199.48Zm35.76,73.49c16.51,0,27.64-11.13,27.64-27.38v-.26c0-16.24-11.13-27.64-27.64-27.64H219.65v55.28Z" style="fill:#26899e"/><path d="M326.8,372.3h18.6l39.3,92.35H363.61l-8.38-20.57H316.45l-8.38,20.57H287.5Zm21.22,54-12.18-29.74-12.18,29.74Z" style="fill:#26899e"/><path d="M410.23,428.5,375,373h23.58l21.88,36.81L442.72,373h22.92l-35.24,55.15v36.55H410.23Z" style="fill:#26899e"/><path d="M194.38,556.58h9.73V603.3h-9.73Z" style="fill:#fff"/><path d="M211.6,586.34v-.13c0-9.79,7-17.85,17-17.85,11.46,0,16.7,8.9,16.7,18.62,0,.77-.06,1.66-.13,2.56H221.26c1,4.42,4,6.72,8.38,6.72,3.26,0,5.63-1,8.32-3.52l5.57,4.93c-3.2,4-7.81,6.4-14,6.4C219.22,604.07,211.6,596.83,211.6,586.34Zm24.19-2.88c-.58-4.35-3.14-7.29-7.23-7.29s-6.66,2.88-7.42,7.29Z" style="fill:#fff"/><path d="M249.81,598.75l4.16-6.4c3.71,2.69,7.62,4.1,10.81,4.1,2.82,0,4.1-1,4.1-2.56v-.13c0-2.11-3.33-2.82-7.1-4-4.8-1.41-10.24-3.65-10.24-10.3v-.13c0-7,5.63-10.88,12.54-10.88a23.74,23.74,0,0,1,12.8,4l-3.71,6.72c-3.39-2-6.78-3.2-9.28-3.2s-3.58,1-3.58,2.37v.13c0,1.92,3.26,2.82,7,4.1,4.8,1.6,10.37,3.9,10.37,10.17v.13c0,7.62-5.7,11.07-13.12,11.07A24,24,0,0,1,249.81,598.75Z" style="fill:#fff"/><path d="M281.29,598.75l4.16-6.4c3.71,2.69,7.62,4.1,10.81,4.1,2.82,0,4.1-1,4.1-2.56v-.13c0-2.11-3.33-2.82-7.1-4-4.8-1.41-10.24-3.65-10.24-10.3v-.13c0-7,5.63-10.88,12.54-10.88a23.74,23.74,0,0,1,12.8,4l-3.71,6.72c-3.39-2-6.78-3.2-9.28-3.2s-3.58,1-3.58,2.37v.13c0,1.92,3.26,2.82,7,4.1,4.8,1.6,10.37,3.9,10.37,10.17v.13c0,7.62-5.7,11.07-13.12,11.07A24,24,0,0,1,281.29,598.75Z" style="fill:#fff"/><path d="M333.26,596.77l5.82-7c4,3.33,8.26,5.44,13.38,5.44,4,0,6.46-1.6,6.46-4.22v-.13c0-2.5-1.54-3.78-9-5.7-9-2.3-14.85-4.8-14.85-13.7v-.13c0-8.13,6.53-13.5,15.68-13.5a25.93,25.93,0,0,1,16.64,5.7L362.25,571c-4-2.75-7.87-4.42-11.65-4.42s-5.76,1.73-5.76,3.9v.13c0,2.94,1.92,3.9,9.66,5.89,9.09,2.37,14.21,5.63,14.21,13.44v.13c0,8.9-6.78,13.89-16.45,13.89A28.51,28.51,0,0,1,333.26,596.77Z" style="fill:#fff"/><path d="M402.25,598.95a20.18,20.18,0,0,1-13.12,5c-8.58,0-15-5-15-12.93v-.13c0-5.7,3.07-9.73,8.7-12.29a15,15,0,0,1-3.14-9v-.13c0-6.14,4.93-11.78,13.57-11.78,7.62,0,12.61,5,12.61,11.26v.13c0,6-3.84,9.54-9.41,11.71l6,6c1.47-2.3,2.94-4.93,4.35-7.68l7.23,4a82.51,82.51,0,0,1-5.89,9.47l6.59,6.59-7.23,5.06Zm-5.5-5.63-8.58-8.7c-2.94,1.54-4.16,3.71-4.16,5.89v.13c0,3.14,2.62,5.25,6.27,5.25A10.61,10.61,0,0,0,396.75,593.32Zm.51-23.61v-.13a4,4,0,0,0-4.22-4.16,4.22,4.22,0,0,0-4.35,4.54v.13c0,2,.77,3.46,2.62,5.57C395.21,574.18,397.26,572.52,397.26,569.7Z" style="fill:#fff"/><path d="M421.84,558.5h9.85v17.73h18.17V558.5h9.86v44.8h-9.86v-18H431.69v18h-9.85Z" style="fill:#fff"/><path d="M69.56,457.3l-4.27-10.45,13.9-19.2-23.37-4-4.27-10.45,44.06-18,3.94,9.63L70.77,416.62l23.89,4.7.1.25L81.15,441.47l28.58-11.68,3.89,9.5Z" style="fill:#fff"/><path d="M68.52,385.43l-.13,0c-13.42,1.76-25.8-7.38-27.71-21.94s7.57-26.44,21-28.2l.13,0c13.42-1.76,25.79,7.38,27.71,21.94S81.93,383.67,68.52,385.43Zm-5.16-39.3-.13,0c-8.09,1.06-14.05,7.88-13,16.24s8.47,13.29,16.56,12.23l.14,0c8.09-1.06,14.05-7.88,13-16.24S71.45,345.06,63.36,346.13Z" style="fill:#fff"/><path d="M38.54,313.15l1.14-9.59,31.74-18.69-29.11-3.46,1.22-10.27,47.27,5.62-1.05,8.85L57,304.93,87,308.5l-1.22,10.27Z" style="fill:#fff"/><path d="M50,245.51l12.09-33.8,8.77,3.14-8.59,24,9.09,3.25L79,221l8.77,3.14-7.56,21.13,9.41,3.37,8.7-24.33,8.77,3.14L94.86,261.54Z" style="fill:#fff"/><path d="M104.22,193.76l-34.14.35,6.45-10.4,22.22.42-10.14-19.9,6.27-10.11,14.69,30.63,16.12,10-5.52,8.9Z" style="fill:#fff"/><path d="M130.12,115.12l17.11-14c4.21-3.44,8.48-5,12.3-4.61a10.91,10.91,0,0,1,7.65,4.2l.09.11c3.4,4.16,3.08,8.28,1.65,11.91,5.6-1.85,10.25-1.53,14.3,3.42l.09.11c5.51,6.74,2.79,14.59-5.53,21.38L160.24,152Zm27.55,2.34c3.58-2.93,4.9-5.93,2.66-8.67l-.09-.1c-2-2.42-5-2.24-8.42.56l-8,6.54,6.37,7.79ZM172,130.54c3.58-2.93,4.71-6,2.47-8.69l-.09-.1c-2-2.47-5.11-2.5-9.27.9l-9.37,7.66,6.63,8.11Z" style="fill:#fff"/><path d="M196.12,69.21,204.8,65l39.36,34.14-9.84,4.8-8.59-7.69-18.09,8.83.77,11.5-9.6,4.68Zm22.19,20.35-12.46-11.1,1.09,16.65Z" style="fill:#fff"/><path d="M245,74.25l0-.13c-3.14-13.16,4.21-26.31,18.43-29.7,8.73-2.08,14.65-.42,20,2.79l-4.7,9c-4.34-2.39-8.46-3.5-13.09-2.4-7.8,1.86-11.88,9.69-10,17.62l0,.13c1.89,7.94,9,13.24,16.9,11.35,5.29-1.26,8-4.15,10.88-8.33l8,5c-3.55,6.23-8.08,10.67-17,12.8A24,24,0,0,1,245,74.25Z" style="fill:#fff"/><path d="M305.44,38.3l10.47-.1.2,20.81,19.11-21,12.65-.12L328.68,58.27l20.53,27.21-12.58.12-15-20.12-5.45,5.76.14,14.55-10.47.1Z" style="fill:#fff"/><path d="M391,68.84l0-.13c4.41-12.79,18-19.84,31.61-15.15,8.1,2.79,12.23,6.66,15.55,12.26l-8.83,5.37c-2.48-4.09-5-6.82-10.19-8.62-7.2-2.48-15.12,1.92-17.75,9.57l0,.13c-2.83,8.23.74,16.22,8.71,19a16.71,16.71,0,0,0,10.25.51l2.21-6.43-10-3.43,2.94-8.55,19.54,6.73-6.73,19.54a30.89,30.89,0,0,1-21.68.52C392.66,95.3,386.4,82.15,391,68.84Z" style="fill:#fff"/><path d="M449.23,94.78l14.54-23,8.85,5.6-14.4,22.76c-4.14,6.55-3,12,2.39,15.43s10.75,2.21,14.79-4.17l14.58-23,8.85,5.6-14.36,22.7c-7.71,12.18-18.33,13.84-29.13,7S441.74,106.62,449.23,94.78Z" style="fill:#fff"/><path d="M529.38,120.51l6.77,6.88-19.87,48.16-7.68-7.81,4.56-10.59L499,142.81l-10.66,4.38-7.49-7.61ZM517.13,148l6.57-15.33L508.26,139Z" style="fill:#fff"/><path d="M563.51,160.49l11.28,18.6c3.14,5.17,4.12,10.07,3.07,14.36a14.94,14.94,0,0,1-7.19,9.13l-.12.07c-6.57,4-12.85,2.94-17.9-1.07l-8.51,18.76-6.34-10.46,7.73-16.62-.07-.12-4.2-6.92-13,7.9-5.43-9Zm-8.84,30c2.64,4.36,6.48,5.45,9.91,3.37l.12-.07c3.84-2.33,4.19-6.2,1.55-10.56l-5.39-8.9-11.69,7.09Z" style="fill:#fff"/><path d="M599.8,232.3l3,9.18-39.27,34.24-3.39-10.41,8.8-7.44-6.23-19.14-11.5-.83-3.3-10.15Zm-23.23,19.15,12.72-10.79-16.63-1.23Z" style="fill:#fff"/><path d="M612.76,283.56l.73,9.63-27.54,24.45,29.22-2.21.78,10.31-47.46,3.59-.67-8.88,28.43-25.27-30.17,2.29-.78-10.31Z" style="fill:#fff"/><path d="M603.33,361.56l2.11-14.33,9.55,1.41-5.75,39-9.55-1.41,2.11-14.33-37.54-5.53L565.79,356Z" style="fill:#fff"/><path d="M603.46,409.23l-12.39,33.7-8.74-3.21,8.8-23.94-9.06-3.33-7.74,21.06-8.74-3.21,7.74-21.06-9.38-3.45L555,430l-8.74-3.21,12.5-34Z" style="fill:#fff"/><path d="M580.39,464.35l-19,30.46-7.9-4.93L567,468.25l-8.19-5.11-11.87,19L539,477.25l11.88-19-8.48-5.29-13.68,21.92-7.9-4.93L540,439.16Z" style="fill:#fff"/></svg>