<svg id="Layer_1" data-name="Layer 1" xmlns="http://www.w3.org/2000/svg" xmlns:xlink="http://www.w3.org/1999/xlink" viewBox="0 0 57.4 54.69"><defs><clipPath id="clip-path" transform="translate(-0.5 -1.15)"><rect x="-133.5" y="1.15" width="325.4" height="56.69" style="fill:none"/></clipPath><linearGradient id="linear-gradient" x1="29.2" y1="1.15" x2="29.2" y2="55.83" gradientUnits="userSpaceOnUse"><stop offset="0" stop-color="#efe8b1"/><stop offset="1" stop-color="#e2cc6b"/></linearGradient></defs><title>star</title><g style="clip-path:url(#clip-path)"><path d="M46.32,55.83a1,1,0,0,1-.59-.19l-16.53-12-16.53,12a1,1,0,0,1-1.54-1.12l6.31-19.43L.91,23.08a1,1,0,0,1,.59-1.81H21.93L28.25,1.84a1,1,0,0,1,1.9,0l6.31,19.43H56.9a1,1,0,0,1,.59,1.81L41,35.09l6.31,19.43a1,1,0,0,1-1,1.31" transform="translate(-0.5 -1.15)" style="fill:url(#linear-gradient)"/></g></svg>